<?xml version="1.0" encoding="UTF-8" standalone="no"?>
<!-- Created with Inkscape (http://www.inkscape.org/) -->

<svg
   width="203.2mm"
   height="22.180649mm"
   viewBox="0 0 203.2 22.180649"
   version="1.1"
   id="svg5"
   inkscape:version="1.2.1 (9c6d41e410, 2022-07-14, custom)"
   sodipodi:docname="logo2.svg"
   inkscape:export-filename="logo2.svg"
   inkscape:export-xdpi="96"
   inkscape:export-ydpi="96"
   xmlns:inkscape="http://www.inkscape.org/namespaces/inkscape"
   xmlns:sodipodi="http://sodipodi.sourceforge.net/DTD/sodipodi-0.dtd"
   xmlns:xlink="http://www.w3.org/1999/xlink"
   xmlns="http://www.w3.org/2000/svg"
   xmlns:svg="http://www.w3.org/2000/svg">
  <sodipodi:namedview
     id="namedview7"
     pagecolor="#505050"
     bordercolor="#eeeeee"
     borderopacity="1"
     inkscape:showpageshadow="false"
     inkscape:pageopacity="0"
     inkscape:pagecheckerboard="0"
     inkscape:deskcolor="#505050"
     inkscape:document-units="mm"
     showgrid="false"
     inkscape:zoom="0.87056074"
     inkscape:cx="581.23458"
     inkscape:cy="75.238863"
     inkscape:window-width="1572"
     inkscape:window-height="830"
     inkscape:window-x="12"
     inkscape:window-y="54"
     inkscape:window-maximized="1"
     inkscape:current-layer="svg5" />
  <defs
     id="defs2">
    <linearGradient
       inkscape:collect="always"
       id="linearGradient420">
      <stop
         style="stop-color:#000000;stop-opacity:1;"
         offset="0"
         id="stop416" />
      <stop
         style="stop-color:#000000;stop-opacity:0;"
         offset="1"
         id="stop418" />
    </linearGradient>
    <rect
       x="258.1525"
       y="311.07437"
       width="435.94232"
       height="346.05374"
       id="rect113" />
    <linearGradient
       inkscape:collect="always"
       xlink:href="#linearGradient420"
       id="linearGradient422"
       x1="301.07385"
       y1="315.82596"
       x2="301.12692"
       y2="319.25955"
       gradientUnits="userSpaceOnUse" />
  </defs>
  <path
     id="text"
     style="font-style:normal;font-variant:normal;font-weight:normal;font-stretch:normal;font-size:8.97457px;font-family:'Doom 2016 Left';-inkscape-font-specification:'Doom 2016 Left, Normal';font-variant-ligatures:normal;font-variant-caps:normal;font-variant-numeric:normal;font-variant-east-asian:normal;white-space:pre;shape-inside:url(#rect113);fill:url(#linearGradient422);fill-opacity:1"
     inkscape:label="text"
     d="M 258.15235 312.89124 L 258.65191 313.28125 L 258.65191 319.17516 L 261.46089 317.07618 L 261.37319 317.01923 L 261.37319 313.15418 L 261.04012 312.89124 L 258.15235 312.89124 z M 261.91215 312.89124 L 261.54848 313.15857 L 261.54848 318.45208 L 262.50381 319.17516 L 264.26976 317.865 L 264.26976 313.15418 L 263.92799 312.89124 L 261.91215 312.89124 z M 264.80883 312.89124 L 264.44505 313.15857 L 264.44505 318.45208 L 265.40037 319.17516 L 267.16633 317.865 L 267.16633 313.15418 L 266.82456 312.89124 L 264.80883 312.89124 z M 267.25403 312.89124 L 267.74478 313.28125 L 267.74478 319.17516 L 268.7658 318.4083 L 268.7658 316.30932 L 269.10768 317.45741 L 269.44945 316.30932 L 269.44945 317.90438 L 270.56246 317.07618 L 270.47487 317.01044 L 270.47487 312.89124 L 269.43196 312.89124 L 269.10768 313.97799 L 268.7877 312.89124 L 267.25403 312.89124 z M 271.63607 312.89124 L 272.12694 313.28125 L 272.12694 319.17516 L 273.14796 318.4083 L 273.14796 316.30932 L 273.83161 317.90438 L 274.94461 317.07618 L 274.85691 317.01044 L 274.85691 312.89124 L 273.814 312.89124 L 273.814 314.52144 L 273.16985 312.89124 L 271.63607 312.89124 z M 275.37408 312.89124 L 275.0322 313.15418 L 275.0322 316.88776 L 276.79826 318.19792 L 277.75359 317.47498 L 277.75359 313.15857 L 277.39422 312.89124 L 275.37408 312.89124 z M 277.92888 312.89124 L 277.92888 316.88776 L 279.69483 318.19792 L 280.65016 317.47498 L 280.65016 313.15418 L 280.30828 312.89124 L 277.92888 312.89124 z M 280.82545 312.89124 L 280.82545 316.88776 L 282.5914 318.19792 L 283.54673 317.47498 L 283.54673 315.79661 L 282.52571 315.79661 L 282.52571 316.78688 L 281.84646 316.29614 L 281.84646 315.7483 L 282.27153 315.7483 L 282.27153 314.63973 L 281.84646 314.63973 L 281.84646 313.99995 L 282.52571 313.99995 L 282.52571 314.49069 L 283.54673 314.49069 L 283.54673 312.89124 L 280.82545 312.89124 z M 283.63431 312.89124 L 284.13387 313.28125 L 284.13387 319.17516 L 286.94285 317.07618 L 286.85515 317.01923 L 286.85515 315.39342 L 286.52219 315.13048 L 286.85515 314.86754 L 286.85515 313.15418 L 286.52219 312.89124 L 283.63431 312.89124 z M 287.03044 312.89124 L 287.03044 316.88776 L 288.79651 318.19792 L 289.75172 317.47498 L 289.75172 312.89124 L 288.73071 312.89124 L 288.73071 316.78688 L 288.05146 316.29614 L 288.05146 312.89124 L 287.03044 312.89124 z M 289.92701 312.89124 L 289.92701 316.88776 L 290.94814 317.64583 L 290.94814 312.89124 L 289.92701 312.89124 z M 291.12342 312.89124 L 291.12342 316.88776 L 292.88938 318.19792 L 293.84471 317.47498 L 293.84471 315.79661 L 292.82369 315.79661 L 292.82369 316.78688 L 292.14444 316.29614 L 292.14444 312.89124 L 291.12342 312.89124 z M 294.01999 312.89124 L 294.01999 316.88776 L 295.78595 318.19792 L 296.74127 317.47498 L 296.74127 313.15418 L 296.39939 312.89124 L 294.01999 312.89124 z M 296.91656 312.89124 L 296.91656 316.88776 L 298.68251 318.19792 L 299.63784 317.47498 L 299.63784 315.79661 L 298.61682 315.79661 L 298.61682 316.78688 L 297.93758 316.29614 L 297.93758 315.7483 L 298.36264 315.7483 L 298.36264 314.63973 L 297.93758 314.63973 L 297.93758 313.99995 L 298.61682 313.99995 L 298.61682 314.49069 L 299.63784 314.49069 L 299.63784 312.89124 L 296.91656 312.89124 z M 299.81313 312.89124 L 299.81313 316.88776 L 300.85604 317.64583 L 300.85604 315.801 L 301.42129 315.801 L 301.51339 315.87113 L 301.51339 317.64583 L 302.53441 316.88776 L 302.53441 315.39342 L 302.20133 315.13048 L 302.53441 314.86754 L 302.53441 313.15418 L 302.20133 312.89124 L 299.81313 312.89124 z M 259.69483 313.99995 L 260.26019 313.99995 L 260.35218 314.07008 L 260.35218 316.28736 L 259.69483 316.79567 L 259.69483 313.99995 z M 262.6572 313.99995 L 263.16104 313.99995 L 263.24874 314.07008 L 263.24874 317.27338 L 262.5695 317.76413 L 262.5695 314.07008 L 262.6572 313.99995 z M 265.55376 313.99995 L 266.05773 313.99995 L 266.14531 314.07008 L 266.14531 317.27338 L 265.46606 317.76413 L 265.46606 314.07008 L 265.55376 313.99995 z M 276.14091 313.99995 L 276.64488 313.99995 L 276.73246 314.07008 L 276.73246 316.78688 L 276.05333 316.29614 L 276.05333 314.07008 L 276.14091 313.99995 z M 278.94989 313.99995 L 279.54144 313.99995 L 279.62914 314.07008 L 279.62914 316.78688 L 278.94989 316.29614 L 278.94989 313.99995 z M 285.17679 313.99995 L 285.74215 313.99995 L 285.83414 314.07008 L 285.83414 314.61777 L 285.74215 314.6879 L 285.17679 314.6879 L 285.17679 313.99995 z M 295.04101 313.99995 L 295.63256 313.99995 L 295.72026 314.07008 L 295.72026 316.78688 L 295.04101 316.29614 L 295.04101 313.99995 z M 300.85604 313.99995 L 301.42129 313.99995 L 301.51339 314.07008 L 301.51339 314.61777 L 301.42129 314.6879 L 300.85604 314.6879 L 300.85604 313.99995 z M 285.17679 315.801 L 285.74215 315.801 L 285.83414 315.87113 L 285.83414 316.28736 L 285.17679 316.79567 L 285.17679 315.801 z "
     transform="matrix(4.578427,0,0,3.5297291,-1181.9317,-1104.4213)" />
  <g
     inkscape:label="Layer 1"
     inkscape:groupmode="layer"
     id="layer1"
     transform="translate(-67.560961,-80.275472)" />
</svg>
